<?xml version="1.0" standalone="no"?>
<!DOCTYPE svg PUBLIC "-//W3C//DTD SVG 20010904//EN"
 "http://www.w3.org/TR/2001/REC-SVG-20010904/DTD/svg10.dtd">
<svg version="1.0" xmlns="http://www.w3.org/2000/svg"
 width="253.000000pt" height="173.000000pt" viewBox="0 0 253.000000 173.000000"
 preserveAspectRatio="xMidYMid meet">

<g transform="translate(0.000000,173.000000) scale(0.100000,-0.100000)"
fill="#000000" stroke="none">
<path d="M860 1630 l0 -90 45 0 45 0 -1 -282 c0 -156 -4 -402 -8 -548 -7 -263
-7 -265 -34 -318 -65 -125 -184 -191 -343 -192 -147 0 -263 70 -326 198 l-33
66 -3 233 -3 233 -95 0 -94 0 0 -218 c0 -243 7 -287 65 -410 82 -173 236 -274
443 -288 242 -18 451 93 546 287 66 136 66 136 66 716 l0 523 45 0 45 0 0 90
0 90 -180 0 -180 0 0 -90z"/>
<path d="M1786 1578 c-5 -100 -10 -135 -21 -143 -8 -5 -42 -25 -75 -44 -170
-97 -305 -271 -356 -461 -24 -89 -25 -290 -1 -380 80 -301 355 -516 686 -537
156 -9 363 52 461 136 l35 30 -61 62 -62 61 -38 -26 c-94 -64 -295 -93 -428
-62 -37 9 -98 31 -135 49 -85 41 -207 159 -244 237 -98 205 -67 436 81 601 55
61 174 140 264 175 l68 27 0 124 0 123 90 0 90 0 0 -124 0 -123 85 -28 c46
-15 104 -40 129 -55 l44 -28 57 58 c36 36 56 64 52 73 -5 14 -141 110 -168
119 -8 3 -13 43 -17 128 -3 75 -9 128 -16 132 -6 4 -124 8 -262 8 l-251 0 -7
-132z"/>
</g>
</svg>
